<?xml version="1.0" encoding="us-ascii" standalone="no"?><svg xmlns="http://www.w3.org/2000/svg" xmlns:xlink="http://www.w3.org/1999/xlink" contentStyleType="text/css" height="2054px" preserveAspectRatio="none" style="width:2967px;height:2054px;background:#FFFFFF;" version="1.1" viewBox="0 0 2967 2054" width="2967px" zoomAndPan="magnify"><defs/><g><text fill="#000000" font-family="sans-serif" font-size="14" font-weight="bold" lengthAdjust="spacing" textLength="285" x="1342.5" y="29.5332">Ablauf eines `kmeans_bert`-Experiments</text><rect fill="#FFFFFF" height="1801.2813" style="stroke:#181818;stroke-width:1.0;" width="10" x="161.5" y="153.5703"/><rect fill="#FFFFFF" height="1696.2266" style="stroke:#181818;stroke-width:1.0;" width="10" x="277.5" y="214.2734"/><rect fill="#FFFFFF" height="28" style="stroke:#181818;stroke-width:1.0;" width="10" x="282.5" y="1001.3594"/><rect fill="#FFFFFF" height="1740.5781" style="stroke:#181818;stroke-width:1.0;" width="10" x="509.5" y="183.9219"/><rect fill="#FFFFFF" height="660.6797" style="stroke:#181818;stroke-width:1.0;" width="10" x="514.5" y="269.9766"/><rect fill="#FFFFFF" height="256.8125" style="stroke:#181818;stroke-width:1.0;" width="10" x="514.5" y="1099.0625"/><rect fill="#FFFFFF" height="14" style="stroke:#181818;stroke-width:1.0;" width="10" x="793" y="300.3281"/><rect fill="#FFFFFF" height="14" style="stroke:#181818;stroke-width:1.0;" width="10" x="793" y="344.6797"/><rect fill="#FFFFFF" height="14" style="stroke:#181818;stroke-width:1.0;" width="10" x="793" y="389.0313"/><rect fill="#FFFFFF" height="14" style="stroke:#181818;stroke-width:1.0;" width="10" x="793" y="433.3828"/><rect fill="#FFFFFF" height="14" style="stroke:#181818;stroke-width:1.0;" width="10" x="793" y="477.7344"/><rect fill="#FFFFFF" height="30.3516" style="stroke:#181818;stroke-width:1.0;" width="10" x="793" y="522.0859"/><rect fill="#FFFFFF" height="333.8672" style="stroke:#181818;stroke-width:1.0;" width="10" x="982" y="582.7891"/><rect fill="#FFFFFF" height="30.3516" style="stroke:#181818;stroke-width:1.0;" width="10" x="1113" y="613.1406"/><rect fill="#FFFFFF" height="30.3516" style="stroke:#181818;stroke-width:1.0;" width="10" x="1253.5" y="673.8438"/><rect fill="#FFFFFF" height="30.3516" style="stroke:#181818;stroke-width:1.0;" width="10" x="1404" y="734.5469"/><rect fill="#FFFFFF" height="30.3516" style="stroke:#181818;stroke-width:1.0;" width="10" x="1596.5" y="795.25"/><rect fill="#FFFFFF" height="30.3516" style="stroke:#181818;stroke-width:1.0;" width="10" x="1788.5" y="855.9531"/><rect fill="#FFFFFF" height="212.4609" style="stroke:#181818;stroke-width:1.0;" width="10" x="1978.5" y="1129.4141"/><rect fill="#FFFFFF" height="349.8672" style="stroke:#181818;stroke-width:1.0;" width="10" x="1978.5" y="1418.5781"/><rect fill="#FFFFFF" height="30.3516" style="stroke:#181818;stroke-width:1.0;" width="10" x="2172.5" y="1159.7656"/><rect fill="#FFFFFF" height="30.3516" style="stroke:#181818;stroke-width:1.0;" width="10" x="2172.5" y="1448.9297"/><rect fill="#FFFFFF" height="30.3516" style="stroke:#181818;stroke-width:1.0;" width="10" x="2346" y="1534.9844"/><rect fill="#FFFFFF" height="30.3516" style="stroke:#181818;stroke-width:1.0;" width="10" x="2346" y="1595.6875"/><rect fill="#FFFFFF" height="30.3516" style="stroke:#181818;stroke-width:1.0;" width="10" x="2543" y="1220.4688"/><rect fill="#FFFFFF" height="30.3516" style="stroke:#181818;stroke-width:1.0;" width="10" x="2543" y="1656.3906"/><rect fill="#FFFFFF" height="30.3516" style="stroke:#181818;stroke-width:1.0;" width="10" x="2703" y="1281.1719"/><rect fill="#FFFFFF" height="30.3516" style="stroke:#181818;stroke-width:1.0;" width="10" x="2703" y="1724.0938"/><rect fill="#FFFFFF" height="14" style="stroke:#181818;stroke-width:1.0;" width="10" x="2805.5" y="1831.1484"/><rect fill="#FFFFFF" height="14" style="stroke:#181818;stroke-width:1.0;" width="10" x="2900.5" y="1875.5"/><rect fill="none" height="709.3828" style="stroke:#000000;stroke-width:1.5;" width="1665" x="214.5" y="229.2734"/><rect fill="none" height="91.7031" style="stroke:#000000;stroke-width:1.5;" width="305" x="214.5" y="952.6563"/><rect fill="none" height="305.5156" style="stroke:#000000;stroke-width:1.5;" width="2556.5" x="214.5" y="1058.3594"/><rect fill="none" height="398.5703" style="stroke:#000000;stroke-width:1.5;" width="2556.5" x="214.5" y="1377.875"/><rect fill="none" height="200.4609" style="stroke:#000000;stroke-width:1.5;" width="785.5" x="1869.5" y="1494.2813"/><rect fill="none" height="107.0547" style="stroke:#000000;stroke-width:1.5;" width="2746.5" x="214.5" y="1790.4453"/><line style="stroke:#181818;stroke-width:0.5;stroke-dasharray:5.0,5.0;" x1="22" x2="22" y1="121.2188" y2="1972.8516"/><line style="stroke:#181818;stroke-width:0.5;stroke-dasharray:5.0,5.0;" x1="166.5" x2="166.5" y1="121.2188" y2="1972.8516"/><line style="stroke:#181818;stroke-width:0.5;stroke-dasharray:5.0,5.0;" x1="282.5" x2="282.5" y1="121.2188" y2="1972.8516"/><line style="stroke:#181818;stroke-width:0.5;stroke-dasharray:5.0,5.0;" x1="514" x2="514" y1="121.2188" y2="1972.8516"/><line style="stroke:#181818;stroke-width:0.5;stroke-dasharray:5.0,5.0;" x1="798" x2="798" y1="121.2188" y2="1972.8516"/><line style="stroke:#181818;stroke-width:0.5;stroke-dasharray:5.0,5.0;" x1="987" x2="987" y1="121.2188" y2="1972.8516"/><line style="stroke:#181818;stroke-width:0.5;stroke-dasharray:5.0,5.0;" x1="1117.5" x2="1117.5" y1="121.2188" y2="1972.8516"/><line style="stroke:#181818;stroke-width:0.5;stroke-dasharray:5.0,5.0;" x1="1258.5" x2="1258.5" y1="121.2188" y2="1972.8516"/><line style="stroke:#181818;stroke-width:0.5;stroke-dasharray:5.0,5.0;" x1="1408.5" x2="1408.5" y1="121.2188" y2="1972.8516"/><line style="stroke:#181818;stroke-width:0.5;stroke-dasharray:5.0,5.0;" x1="1601.5" x2="1601.5" y1="121.2188" y2="1972.8516"/><line style="stroke:#181818;stroke-width:0.5;stroke-dasharray:5.0,5.0;" x1="1793.5" x2="1793.5" y1="121.2188" y2="1972.8516"/><line style="stroke:#181818;stroke-width:0.5;stroke-dasharray:5.0,5.0;" x1="1983.5" x2="1983.5" y1="121.2188" y2="1972.8516"/><line style="stroke:#181818;stroke-width:0.5;stroke-dasharray:5.0,5.0;" x1="2177" x2="2177" y1="121.2188" y2="1972.8516"/><line style="stroke:#181818;stroke-width:0.5;stroke-dasharray:5.0,5.0;" x1="2351" x2="2351" y1="121.2188" y2="1972.8516"/><line style="stroke:#181818;stroke-width:0.5;stroke-dasharray:5.0,5.0;" x1="2548" x2="2548" y1="121.2188" y2="1972.8516"/><line style="stroke:#181818;stroke-width:0.5;stroke-dasharray:5.0,5.0;" x1="2708" x2="2708" y1="121.2188" y2="1972.8516"/><line style="stroke:#181818;stroke-width:0.5;stroke-dasharray:5.0,5.0;" x1="2810" x2="2810" y1="121.2188" y2="1972.8516"/><line style="stroke:#181818;stroke-width:0.5;stroke-dasharray:5.0,5.0;" x1="2905" x2="2905" y1="121.2188" y2="1972.8516"/><text fill="#000000" font-family="sans-serif" font-size="14" lengthAdjust="spacing" textLength="29" x="5" y="118.1426">User</text><ellipse cx="22.5" cy="52.1094" fill="#E2E2F0" rx="8" ry="8" style="stroke:#181818;stroke-width:0.5;"/><path d="M22.5,60.1094 L22.5,87.1094 M9.5,68.1094 L35.5,68.1094 M22.5,87.1094 L9.5,102.1094 M22.5,87.1094 L35.5,102.1094 " fill="none" style="stroke:#181818;stroke-width:0.5;"/><text fill="#000000" font-family="sans-serif" font-size="14" lengthAdjust="spacing" textLength="29" x="5" y="1986.3848">User</text><ellipse cx="22.5" cy="1997.9609" fill="#E2E2F0" rx="8" ry="8" style="stroke:#181818;stroke-width:0.5;"/><path d="M22.5,2005.9609 L22.5,2032.9609 M9.5,2013.9609 L35.5,2013.9609 M22.5,2032.9609 L9.5,2047.9609 M22.5,2032.9609 L35.5,2047.9609 " fill="none" style="stroke:#181818;stroke-width:0.5;"/><rect fill="#E2E2F0" height="31.6094" rx="2.5" ry="2.5" style="stroke:#181818;stroke-width:0.5;" width="96" x="118.5" y="88.6094"/><text fill="#000000" font-family="sans-serif" font-size="14" lengthAdjust="spacing" textLength="82" x="125.5" y="110.1426">cluster_cli.py</text><rect fill="#E2E2F0" height="31.6094" rx="2.5" ry="2.5" style="stroke:#181818;stroke-width:0.5;" width="96" x="118.5" y="1971.8516"/><text fill="#000000" font-family="sans-serif" font-size="14" lengthAdjust="spacing" textLength="82" x="125.5" y="1993.3848">cluster_cli.py</text><rect fill="#E2E2F0" height="31.6094" rx="2.5" ry="2.5" style="stroke:#181818;stroke-width:0.5;" width="116" x="224.5" y="88.6094"/><text fill="#000000" font-family="sans-serif" font-size="14" lengthAdjust="spacing" textLength="102" x="231.5" y="110.1426">BaseExperiment</text><rect fill="#E2E2F0" height="31.6094" rx="2.5" ry="2.5" style="stroke:#181818;stroke-width:0.5;" width="116" x="224.5" y="1971.8516"/><text fill="#000000" font-family="sans-serif" font-size="14" lengthAdjust="spacing" textLength="102" x="231.5" y="1993.3848">BaseExperiment</text><rect fill="#E2E2F0" height="49.2188" rx="2.5" ry="2.5" style="stroke:#181818;stroke-width:0.5;" width="291" x="369" y="71"/><text fill="#000000" font-family="sans-serif" font-size="14" lengthAdjust="spacing" textLength="121" x="454" y="92.5332">KMeansExperiment</text><text fill="#000000" font-family="sans-serif" font-size="14" lengthAdjust="spacing" textLength="277" x="376" y="110.1426">(experiments/kmeans_bert/kmeans_bert.py)</text><rect fill="#E2E2F0" height="49.2188" rx="2.5" ry="2.5" style="stroke:#181818;stroke-width:0.5;" width="291" x="369" y="1971.8516"/><text fill="#000000" font-family="sans-serif" font-size="14" lengthAdjust="spacing" textLength="121" x="454" y="1993.3848">KMeansExperiment</text><text fill="#000000" font-family="sans-serif" font-size="14" lengthAdjust="spacing" textLength="277" x="376" y="2010.9941">(experiments/kmeans_bert/kmeans_bert.py)</text><rect fill="#E2E2F0" height="49.2188" rx="2.5" ry="2.5" style="stroke:#181818;stroke-width:0.5;" width="256" x="670" y="71"/><text fill="#000000" font-family="sans-serif" font-size="14" lengthAdjust="spacing" textLength="132" x="732" y="92.5332">ConfigReaderBuilder</text><text fill="#000000" font-family="sans-serif" font-size="14" lengthAdjust="spacing" textLength="242" x="677" y="110.1426">(config_reader/config_reader_new.py)</text><rect fill="#E2E2F0" height="49.2188" rx="2.5" ry="2.5" style="stroke:#181818;stroke-width:0.5;" width="256" x="670" y="1971.8516"/><text fill="#000000" font-family="sans-serif" font-size="14" lengthAdjust="spacing" textLength="132" x="732" y="1993.3848">ConfigReaderBuilder</text><text fill="#000000" font-family="sans-serif" font-size="14" lengthAdjust="spacing" textLength="242" x="677" y="2010.9941">(config_reader/config_reader_new.py)</text><rect fill="#E2E2F0" height="31.6094" rx="2.5" ry="2.5" style="stroke:#181818;stroke-width:0.5;" width="102" x="936" y="88.6094"/><text fill="#000000" font-family="sans-serif" font-size="14" lengthAdjust="spacing" textLength="88" x="943" y="110.1426">ConfigReader</text><rect fill="#E2E2F0" height="31.6094" rx="2.5" ry="2.5" style="stroke:#181818;stroke-width:0.5;" width="102" x="936" y="1971.8516"/><text fill="#000000" font-family="sans-serif" font-size="14" lengthAdjust="spacing" textLength="88" x="943" y="1993.3848">ConfigReader</text><rect fill="#E2E2F0" height="31.6094" rx="2.5" ry="2.5" style="stroke:#181818;stroke-width:0.5;" width="133" x="1051.5" y="88.6094"/><text fill="#000000" font-family="sans-serif" font-size="14" lengthAdjust="spacing" textLength="119" x="1058.5" y="110.1426">InputConfigReader</text><rect fill="#E2E2F0" height="31.6094" rx="2.5" ry="2.5" style="stroke:#181818;stroke-width:0.5;" width="133" x="1051.5" y="1971.8516"/><text fill="#000000" font-family="sans-serif" font-size="14" lengthAdjust="spacing" textLength="119" x="1058.5" y="1993.3848">InputConfigReader</text><rect fill="#E2E2F0" height="31.6094" rx="2.5" ry="2.5" style="stroke:#181818;stroke-width:0.5;" width="128" x="1194.5" y="88.6094"/><text fill="#000000" font-family="sans-serif" font-size="14" lengthAdjust="spacing" textLength="114" x="1201.5" y="110.1426">BertConfigReader</text><rect fill="#E2E2F0" height="31.6094" rx="2.5" ry="2.5" style="stroke:#181818;stroke-width:0.5;" width="128" x="1194.5" y="1971.8516"/><text fill="#000000" font-family="sans-serif" font-size="14" lengthAdjust="spacing" textLength="114" x="1201.5" y="1993.3848">BertConfigReader</text><rect fill="#E2E2F0" height="31.6094" rx="2.5" ry="2.5" style="stroke:#181818;stroke-width:0.5;" width="153" x="1332.5" y="88.6094"/><text fill="#000000" font-family="sans-serif" font-size="14" lengthAdjust="spacing" textLength="139" x="1339.5" y="110.1426">KMeansConfigReader</text><rect fill="#E2E2F0" height="31.6094" rx="2.5" ry="2.5" style="stroke:#181818;stroke-width:0.5;" width="153" x="1332.5" y="1971.8516"/><text fill="#000000" font-family="sans-serif" font-size="14" lengthAdjust="spacing" textLength="139" x="1339.5" y="1993.3848">KMeansConfigReader</text><rect fill="#E2E2F0" height="31.6094" rx="2.5" ry="2.5" style="stroke:#181818;stroke-width:0.5;" width="212" x="1495.5" y="88.6094"/><text fill="#000000" font-family="sans-serif" font-size="14" lengthAdjust="spacing" textLength="198" x="1502.5" y="110.1426">InterpretationBertConfigReader</text><rect fill="#E2E2F0" height="31.6094" rx="2.5" ry="2.5" style="stroke:#181818;stroke-width:0.5;" width="212" x="1495.5" y="1971.8516"/><text fill="#000000" font-family="sans-serif" font-size="14" lengthAdjust="spacing" textLength="198" x="1502.5" y="1993.3848">InterpretationBertConfigReader</text><rect fill="#E2E2F0" height="31.6094" rx="2.5" ry="2.5" style="stroke:#181818;stroke-width:0.5;" width="152" x="1717.5" y="88.6094"/><text fill="#000000" font-family="sans-serif" font-size="14" lengthAdjust="spacing" textLength="138" x="1724.5" y="110.1426">OutputsConfigReader</text><rect fill="#E2E2F0" height="31.6094" rx="2.5" ry="2.5" style="stroke:#181818;stroke-width:0.5;" width="152" x="1717.5" y="1971.8516"/><text fill="#000000" font-family="sans-serif" font-size="14" lengthAdjust="spacing" textLength="138" x="1724.5" y="1993.3848">OutputsConfigReader</text><rect fill="#E2E2F0" height="49.2188" rx="2.5" ry="2.5" style="stroke:#181818;stroke-width:0.5;" width="208" x="1879.5" y="71"/><text fill="#000000" font-family="sans-serif" font-size="14" lengthAdjust="spacing" textLength="127" x="1920" y="92.5332">KmeansBertPipeline</text><text fill="#000000" font-family="sans-serif" font-size="14" lengthAdjust="spacing" textLength="194" x="1886.5" y="110.1426">(src/pipelines/kmeans_bert.py)</text><rect fill="#E2E2F0" height="49.2188" rx="2.5" ry="2.5" style="stroke:#181818;stroke-width:0.5;" width="208" x="1879.5" y="1971.8516"/><text fill="#000000" font-family="sans-serif" font-size="14" lengthAdjust="spacing" textLength="127" x="1920" y="1993.3848">KmeansBertPipeline</text><text fill="#000000" font-family="sans-serif" font-size="14" lengthAdjust="spacing" textLength="194" x="1886.5" y="2010.9941">(src/pipelines/kmeans_bert.py)</text><rect fill="#E2E2F0" height="49.2188" rx="2.5" ry="2.5" style="stroke:#181818;stroke-width:0.5;" width="147" x="2104" y="71"/><text fill="#000000" font-family="sans-serif" font-size="14" lengthAdjust="spacing" textLength="132" x="2111.5" y="92.5332">BertFeatureExtractor</text><text fill="#000000" font-family="sans-serif" font-size="14" lengthAdjust="spacing" textLength="133" x="2111" y="110.1426">(src/features/bert.py)</text><rect fill="#E2E2F0" height="49.2188" rx="2.5" ry="2.5" style="stroke:#181818;stroke-width:0.5;" width="147" x="2104" y="1971.8516"/><text fill="#000000" font-family="sans-serif" font-size="14" lengthAdjust="spacing" textLength="132" x="2111.5" y="1993.3848">BertFeatureExtractor</text><text fill="#000000" font-family="sans-serif" font-size="14" lengthAdjust="spacing" textLength="133" x="2111" y="2010.9941">(src/features/bert.py)</text><rect fill="#E2E2F0" height="49.2188" rx="2.5" ry="2.5" style="stroke:#181818;stroke-width:0.5;" width="180" x="2261" y="71"/><text fill="#000000" font-family="sans-serif" font-size="14" lengthAdjust="spacing" textLength="149" x="2276.5" y="92.5332">SklearnKMeansAdapter</text><text fill="#000000" font-family="sans-serif" font-size="14" lengthAdjust="spacing" textLength="166" x="2268" y="110.1426">(src/clustering/kmeans.py)</text><rect fill="#E2E2F0" height="49.2188" rx="2.5" ry="2.5" style="stroke:#181818;stroke-width:0.5;" width="180" x="2261" y="1971.8516"/><text fill="#000000" font-family="sans-serif" font-size="14" lengthAdjust="spacing" textLength="149" x="2276.5" y="1993.3848">SklearnKMeansAdapter</text><text fill="#000000" font-family="sans-serif" font-size="14" lengthAdjust="spacing" textLength="166" x="2268" y="2010.9941">(src/clustering/kmeans.py)</text><rect fill="#E2E2F0" height="31.6094" rx="2.5" ry="2.5" style="stroke:#181818;stroke-width:0.5;" width="194" x="2451" y="88.6094"/><text fill="#000000" font-family="sans-serif" font-size="14" lengthAdjust="spacing" textLength="180" x="2458" y="110.1426">BasicUnsupervisedEvaluator</text><rect fill="#E2E2F0" height="31.6094" rx="2.5" ry="2.5" style="stroke:#181818;stroke-width:0.5;" width="194" x="2451" y="1971.8516"/><text fill="#000000" font-family="sans-serif" font-size="14" lengthAdjust="spacing" textLength="180" x="2458" y="1993.3848">BasicUnsupervisedEvaluator</text><rect fill="#E2E2F0" height="31.6094" rx="2.5" ry="2.5" style="stroke:#181818;stroke-width:0.5;" width="106" x="2655" y="88.6094"/><text fill="#000000" font-family="sans-serif" font-size="14" lengthAdjust="spacing" textLength="92" x="2662" y="110.1426">BertInterpreter</text><rect fill="#E2E2F0" height="31.6094" rx="2.5" ry="2.5" style="stroke:#181818;stroke-width:0.5;" width="106" x="2655" y="1971.8516"/><text fill="#000000" font-family="sans-serif" font-size="14" lengthAdjust="spacing" textLength="92" x="2662" y="1993.3848">BertInterpreter</text><rect fill="#E2E2F0" height="31.6094" rx="2.5" ry="2.5" style="stroke:#181818;stroke-width:0.5;" width="79" x="2771" y="88.6094"/><text fill="#000000" font-family="sans-serif" font-size="14" lengthAdjust="spacing" textLength="65" x="2778" y="110.1426">PlotHelper</text><rect fill="#E2E2F0" height="31.6094" rx="2.5" ry="2.5" style="stroke:#181818;stroke-width:0.5;" width="79" x="2771" y="1971.8516"/><text fill="#000000" font-family="sans-serif" font-size="14" lengthAdjust="spacing" textLength="65" x="2778" y="1993.3848">PlotHelper</text><rect fill="#E2E2F0" height="31.6094" rx="2.5" ry="2.5" style="stroke:#181818;stroke-width:0.5;" width="91" x="2860" y="88.6094"/><text fill="#000000" font-family="sans-serif" font-size="14" lengthAdjust="spacing" textLength="77" x="2867" y="110.1426">Dateisystem</text><rect fill="#E2E2F0" height="31.6094" rx="2.5" ry="2.5" style="stroke:#181818;stroke-width:0.5;" width="91" x="2860" y="1971.8516"/><text fill="#000000" font-family="sans-serif" font-size="14" lengthAdjust="spacing" textLength="77" x="2867" y="1993.3848">Dateisystem</text><rect fill="#FFFFFF" height="1801.2813" style="stroke:#181818;stroke-width:1.0;" width="10" x="161.5" y="153.5703"/><rect fill="#FFFFFF" height="1696.2266" style="stroke:#181818;stroke-width:1.0;" width="10" x="277.5" y="214.2734"/><rect fill="#FFFFFF" height="28" style="stroke:#181818;stroke-width:1.0;" width="10" x="282.5" y="1001.3594"/><rect fill="#FFFFFF" height="1740.5781" style="stroke:#181818;stroke-width:1.0;" width="10" x="509.5" y="183.9219"/><rect fill="#FFFFFF" height="660.6797" style="stroke:#181818;stroke-width:1.0;" width="10" x="514.5" y="269.9766"/><rect fill="#FFFFFF" height="256.8125" style="stroke:#181818;stroke-width:1.0;" width="10" x="514.5" y="1099.0625"/><rect fill="#FFFFFF" height="14" style="stroke:#181818;stroke-width:1.0;" width="10" x="793" y="300.3281"/><rect fill="#FFFFFF" height="14" style="stroke:#181818;stroke-width:1.0;" width="10" x="793" y="344.6797"/><rect fill="#FFFFFF" height="14" style="stroke:#181818;stroke-width:1.0;" width="10" x="793" y="389.0313"/><rect fill="#FFFFFF" height="14" style="stroke:#181818;stroke-width:1.0;" width="10" x="793" y="433.3828"/><rect fill="#FFFFFF" height="14" style="stroke:#181818;stroke-width:1.0;" width="10" x="793" y="477.7344"/><rect fill="#FFFFFF" height="30.3516" style="stroke:#181818;stroke-width:1.0;" width="10" x="793" y="522.0859"/><rect fill="#FFFFFF" height="333.8672" style="stroke:#181818;stroke-width:1.0;" width="10" x="982" y="582.7891"/><rect fill="#FFFFFF" height="30.3516" style="stroke:#181818;stroke-width:1.0;" width="10" x="1113" y="613.1406"/><rect fill="#FFFFFF" height="30.3516" style="stroke:#181818;stroke-width:1.0;" width="10" x="1253.5" y="673.8438"/><rect fill="#FFFFFF" height="30.3516" style="stroke:#181818;stroke-width:1.0;" width="10" x="1404" y="734.5469"/><rect fill="#FFFFFF" height="30.3516" style="stroke:#181818;stroke-width:1.0;" width="10" x="1596.5" y="795.25"/><rect fill="#FFFFFF" height="30.3516" style="stroke:#181818;stroke-width:1.0;" width="10" x="1788.5" y="855.9531"/><rect fill="#FFFFFF" height="212.4609" style="stroke:#181818;stroke-width:1.0;" width="10" x="1978.5" y="1129.4141"/><rect fill="#FFFFFF" height="349.8672" style="stroke:#181818;stroke-width:1.0;" width="10" x="1978.5" y="1418.5781"/><rect fill="#FFFFFF" height="30.3516" style="stroke:#181818;stroke-width:1.0;" width="10" x="2172.5" y="1159.7656"/><rect fill="#FFFFFF" height="30.3516" style="stroke:#181818;stroke-width:1.0;" width="10" x="2172.5" y="1448.9297"/><rect fill="#FFFFFF" height="30.3516" style="stroke:#181818;stroke-width:1.0;" width="10" x="2346" y="1534.9844"/><rect fill="#FFFFFF" height="30.3516" style="stroke:#181818;stroke-width:1.0;" width="10" x="2346" y="1595.6875"/><rect fill="#FFFFFF" height="30.3516" style="stroke:#181818;stroke-width:1.0;" width="10" x="2543" y="1220.4688"/><rect fill="#FFFFFF" height="30.3516" style="stroke:#181818;stroke-width:1.0;" width="10" x="2543" y="1656.3906"/><rect fill="#FFFFFF" height="30.3516" style="stroke:#181818;stroke-width:1.0;" width="10" x="2703" y="1281.1719"/><rect fill="#FFFFFF" height="30.3516" style="stroke:#181818;stroke-width:1.0;" width="10" x="2703" y="1724.0938"/><rect fill="#FFFFFF" height="14" style="stroke:#181818;stroke-width:1.0;" width="10" x="2805.5" y="1831.1484"/><rect fill="#FFFFFF" height="14" style="stroke:#181818;stroke-width:1.0;" width="10" x="2900.5" y="1875.5"/><polygon fill="#181818" points="149.5,149.5703,159.5,153.5703,149.5,157.5703,153.5,153.5703" style="stroke:#181818;stroke-width:1.0;"/><line style="stroke:#181818;stroke-width:1.0;" x1="22.5" x2="155.5" y1="153.5703" y2="153.5703"/><text fill="#000000" font-family="sans-serif" font-size="13" lengthAdjust="spacing" textLength="120" x="29.5" y="148.7139">python cluster_cli.py</text><polygon fill="#181818" points="497.5,179.9219,507.5,183.9219,497.5,187.9219,501.5,183.9219" style="stroke:#181818;stroke-width:1.0;"/><line style="stroke:#181818;stroke-width:1.0;" x1="171.5" x2="503.5" y1="183.9219" y2="183.9219"/><text fill="#000000" font-family="sans-serif" font-size="13" lengthAdjust="spacing" textLength="151" x="178.5" y="179.0654">starte KMeansExperiment</text><polygon fill="#181818" points="298.5,210.2734,288.5,214.2734,298.5,218.2734,294.5,214.2734" style="stroke:#181818;stroke-width:1.0;"/><line style="stroke:#181818;stroke-width:1.0;" x1="292.5" x2="508.5" y1="214.2734" y2="214.2734"/><text fill="#000000" font-family="sans-serif" font-size="13" lengthAdjust="spacing" textLength="65" x="304.5" y="209.417">run_many()</text><path d="M214.5,229.2734 L385.5,229.2734 L385.5,237.625 L375.5,247.625 L214.5,247.625 L214.5,229.2734 " fill="#EEEEEE" style="stroke:#000000;stroke-width:1.5;"/><rect fill="none" height="709.3828" style="stroke:#000000;stroke-width:1.5;" width="1665" x="214.5" y="229.2734"/><text fill="#000000" font-family="sans-serif" font-size="13" font-weight="bold" lengthAdjust="spacing" textLength="126" x="229.5" y="243.7686">Konfiguration laden</text><polygon fill="#181818" points="502.5,265.9766,512.5,269.9766,502.5,273.9766,506.5,269.9766" style="stroke:#181818;stroke-width:1.0;"/><line style="stroke:#181818;stroke-width:1.0;" x1="287.5" x2="508.5" y1="269.9766" y2="269.9766"/><text fill="#000000" font-family="sans-serif" font-size="13" lengthAdjust="spacing" textLength="73" x="294.5" y="265.1201">load_config()</text><polygon fill="#181818" points="781,296.3281,791,300.3281,781,304.3281,785,300.3281" style="stroke:#181818;stroke-width:1.0;"/><line style="stroke:#181818;stroke-width:1.0;" x1="524.5" x2="787" y1="300.3281" y2="300.3281"/><text fill="#000000" font-family="sans-serif" font-size="13" lengthAdjust="spacing" textLength="64" x="531.5" y="295.4717">add_input()</text><polygon fill="#181818" points="535.5,310.3281,525.5,314.3281,535.5,318.3281,531.5,314.3281" style="stroke:#181818;stroke-width:1.0;"/><line style="stroke:#181818;stroke-width:1.0;stroke-dasharray:2.0,2.0;" x1="529.5" x2="797" y1="314.3281" y2="314.3281"/><polygon fill="#181818" points="781,340.6797,791,344.6797,781,348.6797,785,344.6797" style="stroke:#181818;stroke-width:1.0;"/><line style="stroke:#181818;stroke-width:1.0;" x1="524.5" x2="787" y1="344.6797" y2="344.6797"/><text fill="#000000" font-family="sans-serif" font-size="13" lengthAdjust="spacing" textLength="58" x="531.5" y="339.8232">add_bert()</text><polygon fill="#181818" points="535.5,354.6797,525.5,358.6797,535.5,362.6797,531.5,358.6797" style="stroke:#181818;stroke-width:1.0;"/><line style="stroke:#181818;stroke-width:1.0;stroke-dasharray:2.0,2.0;" x1="529.5" x2="797" y1="358.6797" y2="358.6797"/><polygon fill="#181818" points="781,385.0313,791,389.0313,781,393.0313,785,389.0313" style="stroke:#181818;stroke-width:1.0;"/><line style="stroke:#181818;stroke-width:1.0;" x1="524.5" x2="787" y1="389.0313" y2="389.0313"/><text fill="#000000" font-family="sans-serif" font-size="13" lengthAdjust="spacing" textLength="82" x="531.5" y="384.1748">add_kmeans()</text><polygon fill="#181818" points="535.5,399.0313,525.5,403.0313,535.5,407.0313,531.5,403.0313" style="stroke:#181818;stroke-width:1.0;"/><line style="stroke:#181818;stroke-width:1.0;stroke-dasharray:2.0,2.0;" x1="529.5" x2="797" y1="403.0313" y2="403.0313"/><polygon fill="#181818" points="781,429.3828,791,433.3828,781,437.3828,785,433.3828" style="stroke:#181818;stroke-width:1.0;"/><line style="stroke:#181818;stroke-width:1.0;" x1="524.5" x2="787" y1="433.3828" y2="433.3828"/><text fill="#000000" font-family="sans-serif" font-size="13" lengthAdjust="spacing" textLength="140" x="531.5" y="428.5264">add_interpretation_bert()</text><polygon fill="#181818" points="535.5,443.3828,525.5,447.3828,535.5,451.3828,531.5,447.3828" style="stroke:#181818;stroke-width:1.0;"/><line style="stroke:#181818;stroke-width:1.0;stroke-dasharray:2.0,2.0;" x1="529.5" x2="797" y1="447.3828" y2="447.3828"/><polygon fill="#181818" points="781,473.7344,791,477.7344,781,481.7344,785,477.7344" style="stroke:#181818;stroke-width:1.0;"/><line style="stroke:#181818;stroke-width:1.0;" x1="524.5" x2="787" y1="477.7344" y2="477.7344"/><text fill="#000000" font-family="sans-serif" font-size="13" lengthAdjust="spacing" textLength="79" x="531.5" y="472.8779">add_outputs()</text><polygon fill="#181818" points="535.5,487.7344,525.5,491.7344,535.5,495.7344,531.5,491.7344" style="stroke:#181818;stroke-width:1.0;"/><line style="stroke:#181818;stroke-width:1.0;stroke-dasharray:2.0,2.0;" x1="529.5" x2="797" y1="491.7344" y2="491.7344"/><polygon fill="#181818" points="781,518.0859,791,522.0859,781,526.0859,785,522.0859" style="stroke:#181818;stroke-width:1.0;"/><line style="stroke:#181818;stroke-width:1.0;" x1="524.5" x2="787" y1="522.0859" y2="522.0859"/><text fill="#000000" font-family="sans-serif" font-size="13" lengthAdjust="spacing" textLength="35" x="531.5" y="517.2295">build()</text><polygon fill="#181818" points="535.5,548.4375,525.5,552.4375,535.5,556.4375,531.5,552.4375" style="stroke:#181818;stroke-width:1.0;"/><line style="stroke:#181818;stroke-width:1.0;stroke-dasharray:2.0,2.0;" x1="529.5" x2="797" y1="552.4375" y2="552.4375"/><text fill="#000000" font-family="sans-serif" font-size="13" lengthAdjust="spacing" textLength="77" x="541.5" y="547.5811">ConfigReader</text><polygon fill="#181818" points="970,578.7891,980,582.7891,970,586.7891,974,582.7891" style="stroke:#181818;stroke-width:1.0;"/><line style="stroke:#181818;stroke-width:1.0;" x1="524.5" x2="976" y1="582.7891" y2="582.7891"/><text fill="#000000" font-family="sans-serif" font-size="13" lengthAdjust="spacing" textLength="99" x="531.5" y="577.9326">read(config_path)</text><polygon fill="#181818" points="1101,609.1406,1111,613.1406,1101,617.1406,1105,613.1406" style="stroke:#181818;stroke-width:1.0;"/><line style="stroke:#181818;stroke-width:1.0;" x1="992" x2="1107" y1="613.1406" y2="613.1406"/><text fill="#000000" font-family="sans-serif" font-size="13" lengthAdjust="spacing" textLength="102" x="999" y="608.2842">read_section(raw)</text><polygon fill="#181818" points="1003,639.4922,993,643.4922,1003,647.4922,999,643.4922" style="stroke:#181818;stroke-width:1.0;"/><line style="stroke:#181818;stroke-width:1.0;stroke-dasharray:2.0,2.0;" x1="997" x2="1117" y1="643.4922" y2="643.4922"/><text fill="#000000" font-family="sans-serif" font-size="13" lengthAdjust="spacing" textLength="64" x="1009" y="638.6357">InputConfig</text><polygon fill="#181818" points="1241.5,669.8438,1251.5,673.8438,1241.5,677.8438,1245.5,673.8438" style="stroke:#181818;stroke-width:1.0;"/><line style="stroke:#181818;stroke-width:1.0;" x1="992" x2="1247.5" y1="673.8438" y2="673.8438"/><text fill="#000000" font-family="sans-serif" font-size="13" lengthAdjust="spacing" textLength="102" x="999" y="668.9873">read_section(raw)</text><polygon fill="#181818" points="1003,700.1953,993,704.1953,1003,708.1953,999,704.1953" style="stroke:#181818;stroke-width:1.0;"/><line style="stroke:#181818;stroke-width:1.0;stroke-dasharray:2.0,2.0;" x1="997" x2="1257.5" y1="704.1953" y2="704.1953"/><text fill="#000000" font-family="sans-serif" font-size="13" lengthAdjust="spacing" textLength="70" x="1009" y="699.3389">BERTConfig</text><polygon fill="#181818" points="1392,730.5469,1402,734.5469,1392,738.5469,1396,734.5469" style="stroke:#181818;stroke-width:1.0;"/><line style="stroke:#181818;stroke-width:1.0;" x1="992" x2="1398" y1="734.5469" y2="734.5469"/><text fill="#000000" font-family="sans-serif" font-size="13" lengthAdjust="spacing" textLength="102" x="999" y="729.6904">read_section(raw)</text><polygon fill="#181818" points="1003,760.8984,993,764.8984,1003,768.8984,999,764.8984" style="stroke:#181818;stroke-width:1.0;"/><line style="stroke:#181818;stroke-width:1.0;stroke-dasharray:2.0,2.0;" x1="997" x2="1408" y1="764.8984" y2="764.8984"/><text fill="#000000" font-family="sans-serif" font-size="13" lengthAdjust="spacing" textLength="84" x="1009" y="760.042">KMeansConfig</text><polygon fill="#181818" points="1584.5,791.25,1594.5,795.25,1584.5,799.25,1588.5,795.25" style="stroke:#181818;stroke-width:1.0;"/><line style="stroke:#181818;stroke-width:1.0;" x1="992" x2="1590.5" y1="795.25" y2="795.25"/><text fill="#000000" font-family="sans-serif" font-size="13" lengthAdjust="spacing" textLength="102" x="999" y="790.3936">read_section(raw)</text><polygon fill="#181818" points="1003,821.6016,993,825.6016,1003,829.6016,999,825.6016" style="stroke:#181818;stroke-width:1.0;"/><line style="stroke:#181818;stroke-width:1.0;stroke-dasharray:2.0,2.0;" x1="997" x2="1600.5" y1="825.6016" y2="825.6016"/><text fill="#000000" font-family="sans-serif" font-size="13" lengthAdjust="spacing" textLength="118" x="1009" y="820.7451">BertInterpreterConfig</text><polygon fill="#181818" points="1776.5,851.9531,1786.5,855.9531,1776.5,859.9531,1780.5,855.9531" style="stroke:#181818;stroke-width:1.0;"/><line style="stroke:#181818;stroke-width:1.0;" x1="992" x2="1782.5" y1="855.9531" y2="855.9531"/><text fill="#000000" font-family="sans-serif" font-size="13" lengthAdjust="spacing" textLength="102" x="999" y="851.0967">read_section(raw)</text><polygon fill="#181818" points="1003,882.3047,993,886.3047,1003,890.3047,999,886.3047" style="stroke:#181818;stroke-width:1.0;"/><line style="stroke:#181818;stroke-width:1.0;stroke-dasharray:2.0,2.0;" x1="997" x2="1792.5" y1="886.3047" y2="886.3047"/><text fill="#000000" font-family="sans-serif" font-size="13" lengthAdjust="spacing" textLength="82" x="1009" y="881.4482">OutputsConfig</text><polygon fill="#181818" points="535.5,912.6563,525.5,916.6563,535.5,920.6563,531.5,916.6563" style="stroke:#181818;stroke-width:1.0;"/><line style="stroke:#181818;stroke-width:1.0;stroke-dasharray:2.0,2.0;" x1="529.5" x2="986" y1="916.6563" y2="916.6563"/><text fill="#000000" font-family="sans-serif" font-size="13" lengthAdjust="spacing" textLength="143" x="541.5" y="911.7998">ParsedExperimentConfig</text><polygon fill="#181818" points="298.5,926.6563,288.5,930.6563,298.5,934.6563,294.5,930.6563" style="stroke:#181818;stroke-width:1.0;"/><line style="stroke:#181818;stroke-width:1.0;stroke-dasharray:2.0,2.0;" x1="292.5" x2="508.5" y1="930.6563" y2="930.6563"/><path d="M214.5,952.6563 L371.5,952.6563 L371.5,961.0078 L361.5,971.0078 L214.5,971.0078 L214.5,952.6563 " fill="#EEEEEE" style="stroke:#000000;stroke-width:1.5;"/><rect fill="none" height="91.7031" style="stroke:#000000;stroke-width:1.5;" width="305" x="214.5" y="952.6563"/><text fill="#000000" font-family="sans-serif" font-size="13" font-weight="bold" lengthAdjust="spacing" textLength="112" x="229.5" y="967.1514">Dokumente laden</text><line style="stroke:#181818;stroke-width:1.0;" x1="292.5" x2="334.5" y1="993.3594" y2="993.3594"/><line style="stroke:#181818;stroke-width:1.0;" x1="334.5" x2="334.5" y1="993.3594" y2="1006.3594"/><line style="stroke:#181818;stroke-width:1.0;" x1="293.5" x2="334.5" y1="1006.3594" y2="1006.3594"/><polygon fill="#181818" points="303.5,1002.3594,293.5,1006.3594,303.5,1010.3594,299.5,1006.3594" style="stroke:#181818;stroke-width:1.0;"/><text fill="#000000" font-family="sans-serif" font-size="13" lengthAdjust="spacing" textLength="208" x="299.5" y="988.5029">load_documents(experiment_config)</text><path d="M214.5,1058.3594 L356.5,1058.3594 L356.5,1066.7109 L346.5,1076.7109 L214.5,1076.7109 L214.5,1058.3594 " fill="#EEEEEE" style="stroke:#000000;stroke-width:1.5;"/><rect fill="none" height="305.5156" style="stroke:#000000;stroke-width:1.5;" width="2556.5" x="214.5" y="1058.3594"/><text fill="#000000" font-family="sans-serif" font-size="13" font-weight="bold" lengthAdjust="spacing" textLength="97" x="229.5" y="1072.8545">Pipeline bauen</text><polygon fill="#181818" points="502.5,1095.0625,512.5,1099.0625,502.5,1103.0625,506.5,1099.0625" style="stroke:#181818;stroke-width:1.0;"/><line style="stroke:#181818;stroke-width:1.0;" x1="287.5" x2="508.5" y1="1099.0625" y2="1099.0625"/><text fill="#000000" font-family="sans-serif" font-size="13" lengthAdjust="spacing" textLength="86" x="294.5" y="1094.2061">build_pipeline()</text><polygon fill="#181818" points="1966.5,1125.4141,1976.5,1129.4141,1966.5,1133.4141,1970.5,1129.4141" style="stroke:#181818;stroke-width:1.0;"/><line style="stroke:#181818;stroke-width:1.0;" x1="524.5" x2="1972.5" y1="1129.4141" y2="1129.4141"/><text fill="#000000" font-family="sans-serif" font-size="13" lengthAdjust="spacing" textLength="408" x="531.5" y="1124.5576">KmeansBertPipeline(kmeans_config, bert_config, interpretation_config)</text><polygon fill="#181818" points="2160.5,1155.7656,2170.5,1159.7656,2160.5,1163.7656,2164.5,1159.7656" style="stroke:#181818;stroke-width:1.0;"/><line style="stroke:#181818;stroke-width:1.0;" x1="1988.5" x2="2166.5" y1="1159.7656" y2="1159.7656"/><text fill="#000000" font-family="sans-serif" font-size="13" lengthAdjust="spacing" textLength="88" x="1995.5" y="1154.9092">init(bert_config)</text><polygon fill="#181818" points="1999.5,1186.1172,1989.5,1190.1172,1999.5,1194.1172,1995.5,1190.1172" style="stroke:#181818;stroke-width:1.0;"/><line style="stroke:#181818;stroke-width:1.0;stroke-dasharray:2.0,2.0;" x1="1993.5" x2="2176.5" y1="1190.1172" y2="1190.1172"/><text fill="#000000" font-family="sans-serif" font-size="13" lengthAdjust="spacing" textLength="121" x="2005.5" y="1185.2607">BertFeatureExtractor</text><polygon fill="#181818" points="2531,1216.4688,2541,1220.4688,2531,1224.4688,2535,1220.4688" style="stroke:#181818;stroke-width:1.0;"/><line style="stroke:#181818;stroke-width:1.0;" x1="1988.5" x2="2537" y1="1220.4688" y2="1220.4688"/><text fill="#000000" font-family="sans-serif" font-size="13" lengthAdjust="spacing" textLength="25" x="1995.5" y="1215.6123">init()</text><polygon fill="#181818" points="1999.5,1246.8203,1989.5,1250.8203,1999.5,1254.8203,1995.5,1250.8203" style="stroke:#181818;stroke-width:1.0;"/><line style="stroke:#181818;stroke-width:1.0;stroke-dasharray:2.0,2.0;" x1="1993.5" x2="2547" y1="1250.8203" y2="1250.8203"/><text fill="#000000" font-family="sans-serif" font-size="13" lengthAdjust="spacing" textLength="163" x="2005.5" y="1245.9639">BasicUnsupervisedEvaluator</text><polygon fill="#181818" points="2691,1277.1719,2701,1281.1719,2691,1285.1719,2695,1281.1719" style="stroke:#181818;stroke-width:1.0;"/><line style="stroke:#181818;stroke-width:1.0;" x1="1988.5" x2="2697" y1="1281.1719" y2="1281.1719"/><text fill="#000000" font-family="sans-serif" font-size="13" lengthAdjust="spacing" textLength="141" x="1995.5" y="1276.3154">init(interpretation_config)</text><polygon fill="#181818" points="1999.5,1307.5234,1989.5,1311.5234,1999.5,1315.5234,1995.5,1311.5234" style="stroke:#181818;stroke-width:1.0;"/><line style="stroke:#181818;stroke-width:1.0;stroke-dasharray:2.0,2.0;" x1="1993.5" x2="2707" y1="1311.5234" y2="1311.5234"/><text fill="#000000" font-family="sans-serif" font-size="13" lengthAdjust="spacing" textLength="123" x="2005.5" y="1306.667">BertClusterInterpreter</text><polygon fill="#181818" points="535.5,1337.875,525.5,1341.875,535.5,1345.875,531.5,1341.875" style="stroke:#181818;stroke-width:1.0;"/><line style="stroke:#181818;stroke-width:1.0;stroke-dasharray:2.0,2.0;" x1="529.5" x2="1982.5" y1="1341.875" y2="1341.875"/><text fill="#000000" font-family="sans-serif" font-size="13" lengthAdjust="spacing" textLength="118" x="541.5" y="1337.0186">KmeansBertPipeline</text><polygon fill="#181818" points="298.5,1351.875,288.5,1355.875,298.5,1359.875,294.5,1355.875" style="stroke:#181818;stroke-width:1.0;"/><line style="stroke:#181818;stroke-width:1.0;stroke-dasharray:2.0,2.0;" x1="292.5" x2="508.5" y1="1355.875" y2="1355.875"/><path d="M214.5,1377.875 L331.5,1377.875 L331.5,1386.2266 L321.5,1396.2266 L214.5,1396.2266 L214.5,1377.875 " fill="#EEEEEE" style="stroke:#000000;stroke-width:1.5;"/><rect fill="none" height="398.5703" style="stroke:#000000;stroke-width:1.5;" width="2556.5" x="214.5" y="1377.875"/><text fill="#000000" font-family="sans-serif" font-size="13" font-weight="bold" lengthAdjust="spacing" textLength="72" x="229.5" y="1392.3701">Ausf&#252;hrung</text><polygon fill="#181818" points="1966.5,1414.5781,1976.5,1418.5781,1966.5,1422.5781,1970.5,1418.5781" style="stroke:#181818;stroke-width:1.0;"/><line style="stroke:#181818;stroke-width:1.0;" x1="287.5" x2="1972.5" y1="1418.5781" y2="1418.5781"/><text fill="#000000" font-family="sans-serif" font-size="13" lengthAdjust="spacing" textLength="129" x="294.5" y="1413.7217">run_many(documents)</text><polygon fill="#181818" points="2160.5,1444.9297,2170.5,1448.9297,2160.5,1452.9297,2164.5,1448.9297" style="stroke:#181818;stroke-width:1.0;"/><line style="stroke:#181818;stroke-width:1.0;" x1="1988.5" x2="2166.5" y1="1448.9297" y2="1448.9297"/><text fill="#000000" font-family="sans-serif" font-size="13" lengthAdjust="spacing" textLength="165" x="1995.5" y="1444.0732">extract_features(documents)</text><polygon fill="#181818" points="1999.5,1475.2813,1989.5,1479.2813,1999.5,1483.2813,1995.5,1479.2813" style="stroke:#181818;stroke-width:1.0;"/><line style="stroke:#181818;stroke-width:1.0;stroke-dasharray:2.0,2.0;" x1="1993.5" x2="2176.5" y1="1479.2813" y2="1479.2813"/><text fill="#000000" font-family="sans-serif" font-size="13" lengthAdjust="spacing" textLength="140" x="2005.5" y="1474.4248">FeatureExtractionResult</text><path d="M1869.5,1494.2813 L1942.5,1494.2813 L1942.5,1502.6328 L1932.5,1512.6328 L1869.5,1512.6328 L1869.5,1494.2813 " fill="#EEEEEE" style="stroke:#000000;stroke-width:1.5;"/><rect fill="none" height="200.4609" style="stroke:#000000;stroke-width:1.5;" width="785.5" x="1869.5" y="1494.2813"/><text fill="#000000" font-family="sans-serif" font-size="13" font-weight="bold" lengthAdjust="spacing" textLength="28" x="1884.5" y="1508.7764">loop</text><text fill="#000000" font-family="sans-serif" font-size="11" font-weight="bold" lengthAdjust="spacing" textLength="97" x="1957.5" y="1507.7002">[pro Optuna-Trial]</text><polygon fill="#181818" points="2334,1530.9844,2344,1534.9844,2334,1538.9844,2338,1534.9844" style="stroke:#181818;stroke-width:1.0;"/><line style="stroke:#181818;stroke-width:1.0;" x1="1988.5" x2="2340" y1="1534.9844" y2="1534.9844"/><text fill="#000000" font-family="sans-serif" font-size="13" lengthAdjust="spacing" textLength="263" x="1995.5" y="1530.1279">create trial clusterer with seed und n_clusters</text><polygon fill="#181818" points="1999.5,1561.3359,1989.5,1565.3359,1999.5,1569.3359,1995.5,1565.3359" style="stroke:#181818;stroke-width:1.0;"/><line style="stroke:#181818;stroke-width:1.0;stroke-dasharray:2.0,2.0;" x1="1993.5" x2="2350" y1="1565.3359" y2="1565.3359"/><text fill="#000000" font-family="sans-serif" font-size="13" lengthAdjust="spacing" textLength="137" x="2005.5" y="1560.4795">SklearnKMeansAdapter</text><polygon fill="#181818" points="2334,1591.6875,2344,1595.6875,2334,1599.6875,2338,1595.6875" style="stroke:#181818;stroke-width:1.0;"/><line style="stroke:#181818;stroke-width:1.0;" x1="1988.5" x2="2340" y1="1595.6875" y2="1595.6875"/><text fill="#000000" font-family="sans-serif" font-size="13" lengthAdjust="spacing" textLength="160" x="1995.5" y="1590.8311">fit_predict(features.features)</text><polygon fill="#181818" points="1999.5,1622.0391,1989.5,1626.0391,1999.5,1630.0391,1995.5,1626.0391" style="stroke:#181818;stroke-width:1.0;"/><line style="stroke:#181818;stroke-width:1.0;stroke-dasharray:2.0,2.0;" x1="1993.5" x2="2350" y1="1626.0391" y2="1626.0391"/><text fill="#000000" font-family="sans-serif" font-size="13" lengthAdjust="spacing" textLength="95" x="2005.5" y="1621.1826">ClusteringResult</text><polygon fill="#181818" points="2531,1652.3906,2541,1656.3906,2531,1660.3906,2535,1656.3906" style="stroke:#181818;stroke-width:1.0;"/><line style="stroke:#181818;stroke-width:1.0;" x1="1988.5" x2="2537" y1="1656.3906" y2="1656.3906"/><text fill="#000000" font-family="sans-serif" font-size="13" lengthAdjust="spacing" textLength="165" x="1995.5" y="1651.5342">evaluate(features, clustering)</text><polygon fill="#181818" points="1999.5,1682.7422,1989.5,1686.7422,1999.5,1690.7422,1995.5,1686.7422" style="stroke:#181818;stroke-width:1.0;"/><line style="stroke:#181818;stroke-width:1.0;stroke-dasharray:2.0,2.0;" x1="1993.5" x2="2547" y1="1686.7422" y2="1686.7422"/><text fill="#000000" font-family="sans-serif" font-size="13" lengthAdjust="spacing" textLength="96" x="2005.5" y="1681.8857">EvaluationResult</text><polygon fill="#181818" points="2691,1720.0938,2701,1724.0938,2691,1728.0938,2695,1724.0938" style="stroke:#181818;stroke-width:1.0;"/><line style="stroke:#181818;stroke-width:1.0;" x1="1988.5" x2="2697" y1="1724.0938" y2="1724.0938"/><text fill="#000000" font-family="sans-serif" font-size="13" lengthAdjust="spacing" textLength="229" x="1995.5" y="1719.2373">interpret(best_features, best_clustering)</text><polygon fill="#181818" points="1999.5,1750.4453,1989.5,1754.4453,1999.5,1758.4453,1995.5,1754.4453" style="stroke:#181818;stroke-width:1.0;"/><line style="stroke:#181818;stroke-width:1.0;stroke-dasharray:2.0,2.0;" x1="1993.5" x2="2707" y1="1754.4453" y2="1754.4453"/><text fill="#000000" font-family="sans-serif" font-size="13" lengthAdjust="spacing" textLength="75" x="2005.5" y="1749.5889">Interpretation</text><polygon fill="#181818" points="298.5,1764.4453,288.5,1768.4453,298.5,1772.4453,294.5,1768.4453" style="stroke:#181818;stroke-width:1.0;"/><line style="stroke:#181818;stroke-width:1.0;stroke-dasharray:2.0,2.0;" x1="292.5" x2="1982.5" y1="1768.4453" y2="1768.4453"/><path d="M214.5,1790.4453 L394.5,1790.4453 L394.5,1798.7969 L384.5,1808.7969 L214.5,1808.7969 L214.5,1790.4453 " fill="#EEEEEE" style="stroke:#000000;stroke-width:1.5;"/><rect fill="none" height="107.0547" style="stroke:#000000;stroke-width:1.5;" width="2746.5" x="214.5" y="1790.4453"/><text fill="#000000" font-family="sans-serif" font-size="13" font-weight="bold" lengthAdjust="spacing" textLength="135" x="229.5" y="1804.9404">Ergebnisse speichern</text><polygon fill="#181818" points="2793.5,1827.1484,2803.5,1831.1484,2793.5,1835.1484,2797.5,1831.1484" style="stroke:#181818;stroke-width:1.0;"/><line style="stroke:#181818;stroke-width:1.0;" x1="287.5" x2="2799.5" y1="1831.1484" y2="1831.1484"/><text fill="#000000" font-family="sans-serif" font-size="13" lengthAdjust="spacing" textLength="120" x="294.5" y="1826.292">save_cluster_plot(...)</text><polygon fill="#181818" points="298.5,1841.1484,288.5,1845.1484,298.5,1849.1484,294.5,1845.1484" style="stroke:#181818;stroke-width:1.0;"/><line style="stroke:#181818;stroke-width:1.0;stroke-dasharray:2.0,2.0;" x1="292.5" x2="2809.5" y1="1845.1484" y2="1845.1484"/><polygon fill="#181818" points="2888.5,1871.5,2898.5,1875.5,2888.5,1879.5,2892.5,1875.5" style="stroke:#181818;stroke-width:1.0;"/><line style="stroke:#181818;stroke-width:1.0;" x1="287.5" x2="2894.5" y1="1875.5" y2="1875.5"/><text fill="#000000" font-family="sans-serif" font-size="13" lengthAdjust="spacing" textLength="296" x="294.5" y="1870.6436">schreibe JSON/Summary/Plot in outputs.output_dir</text><polygon fill="#181818" points="298.5,1885.5,288.5,1889.5,298.5,1893.5,294.5,1889.5" style="stroke:#181818;stroke-width:1.0;"/><line style="stroke:#181818;stroke-width:1.0;stroke-dasharray:2.0,2.0;" x1="292.5" x2="2904.5" y1="1889.5" y2="1889.5"/><polygon fill="#181818" points="497.5,1906.5,507.5,1910.5,497.5,1914.5,501.5,1910.5" style="stroke:#181818;stroke-width:1.0;"/><line style="stroke:#181818;stroke-width:1.0;stroke-dasharray:2.0,2.0;" x1="282.5" x2="503.5" y1="1910.5" y2="1910.5"/><polygon fill="#181818" points="182.5,1920.5,172.5,1924.5,182.5,1928.5,178.5,1924.5" style="stroke:#181818;stroke-width:1.0;"/><line style="stroke:#181818;stroke-width:1.0;stroke-dasharray:2.0,2.0;" x1="176.5" x2="513.5" y1="1924.5" y2="1924.5"/><polygon fill="#181818" points="33.5,1950.8516,23.5,1954.8516,33.5,1958.8516,29.5,1954.8516" style="stroke:#181818;stroke-width:1.0;"/><line style="stroke:#181818;stroke-width:1.0;stroke-dasharray:2.0,2.0;" x1="27.5" x2="165.5" y1="1954.8516" y2="1954.8516"/><text fill="#000000" font-family="sans-serif" font-size="13" lengthAdjust="spacing" textLength="100" x="39.5" y="1949.9951">zeige Ergebnisse</text><!--SRC=[fLTBRnit43vhVmMHamn4qZs70hOZesdQsh2IMu0DjJkI2A-u11zsrT_MM_zOX-G-EFjmMjSNBOVVV3FaF3YsmbR0hlSLTmS6Ge9Xtv_EmAN9zw3jzzNs3mLQd45QasMyiBLcNmteJ75jHI4KbvQzAofdBEYygCHQNTunRjZjhv-sqkeB1Tvm0prZ058HXN_-pNlIxtwJI-ZzsIIEfj_embMWdgEzhUL171-1bw1ldAZm1vcB8Crr46_8AfVmqh4s6lEK0HK_AUYJLCwEa44w1R_1iupGNZW5ZbSrWaVnj3COCQN1SYjgEMahGkOitZkBZezDHlcaZo56dkz1AAWms_3QZIusgbcQoJ2suF7jt06tJcFwM1rIiw4xHB7P41glq24fr-wf0gvblAphaYiBBLUJsa8U6zywFe8UfRaelahZCF-UXO5o-ymhnz5kpCjsDJvH5nKIWh2cu8UgjZz3fHfSlwImZzo2C1SymZdWxdPOnSxMU0dY6VTOBRFC5pHR_TJLBFl0rCMUQibeOMST0C5zSI7SM3GAR5YlMG925LhggAQTpCzSNfPNMNRKjLFiSyWcfqDIiWfpI6QBWTxGU5NpCe_rYaIBWSrOhGZZPPaBNsiUr8fNXEnrPPzDRzMDkVDMRK5gzNyvKiUgVOlwtd_DAo8YxGL3dYZrGSUFjjagRaz8sEmXAcc63JGtKFXJBpL_GMWAMAMqINDD2VlkDSsNx1Ewc-tZbp5Rsawd-GY2CAOTcXwPTjcvSmzGr5lQEiP6qgOyRO0W23bfz3tfCFWFNFjEruaQFCE_D1D6VI03MRRb_x5-Sbu6ywK_QYAX_Ckw28ec6H2Qdd0LN2YXQtdpvjkNXksv-nUD9nH4tZvUuzxJqM7mHq_ViddgefFlcI_gRZ4e-FOWYuwnoUpkFKCJGWgxJ5ZYkIbgbNWLisRuX58RtKlLyaVINhoYnvn_-2XlagijyyoHlRaKFJJevvRuIALFfTVgxGtZDWx6VylIQsSEV_zrmjVhE9KZYNlT0zVbvm-22F4xRqSOeZWVIzIaWSGhV0JZAcpdLLqhfdJDxfLrag- -QC6hR47S8BCCaXNO8B1Ih8UsGm1kl0XxOWQWP4wM38CKTqouFlz7UGOUJarPF_3Z86oE8Ir5OPVjbQpR3xoHnQi6RxlPhRsBsUI6-0sTbVUid_oyeTcKRpQI2_UPycgsDoiiLjD7sdS0N1AhhoG-7T_72J-VlLjzXBqKnW0p2aHn0ZtPwlgHqWzu_1bQttA5EylrUXshCy5D69uWljjvmkAaGUo1_RAx_tspS-SprvUDvy8BOisKiew_UIamKL1jxc136tIW6Unq_vacuooAmn3yWVq9uWZ97MN_0000]--></g></svg>